<svg width="50" height="50" viewBox="0 0 50 50" fill="none" xmlns="http://www.w3.org/2000/svg">
<path opacity="0.3" d="M27.0833 8.33337H12.5V41.6667H37.5V18.75H27.0833V8.33337ZM33.3333 37.5H16.6667V33.3334H33.3333V37.5ZM33.3333 25V29.1667H16.6667V25H33.3333Z" fill="white"/>
<path d="M16.6666 33.3333H33.3333V37.5H16.6666V33.3333ZM16.6666 25H33.3333V29.1666H16.6666V25ZM29.1666 4.16663H12.4999C10.2083 4.16663 8.33325 6.04163 8.33325 8.33329V41.6666C8.33325 43.9583 10.1874 45.8333 12.4791 45.8333H37.4999C39.7916 45.8333 41.6666 43.9583 41.6666 41.6666V16.6666L29.1666 4.16663ZM37.4999 41.6666H12.4999V8.33329H27.0833V18.75H37.4999V41.6666Z" fill="black"/>
</svg>
