<svg width="27" height="59" viewBox="0 0 27 59" fill="none" xmlns="http://www.w3.org/2000/svg">
<path fill-rule="evenodd" clip-rule="evenodd" d="M24.2134 8.27806C24.2134 12.8497 19.308 16.5562 13.2576 16.5562C7.20833 16.5562 2.3017 12.8497 2.3017 8.27806C2.3017 3.70642 7.20833 -3.8147e-05 13.2576 -3.8147e-05C19.308 -3.8147e-05 24.2134 3.70642 24.2134 8.27806Z" fill="#ccc"/>
<path fill-rule="evenodd" clip-rule="evenodd" d="M23.8803 19.7943C22.2198 18.917 19.2068 18.1984 17.1818 18.1984H9.81818C7.79318 18.1984 4.78023 18.917 3.11973 19.7943L3.01664 19.849C1.35614 20.7262 0 22.6958 0 24.2259V35.0059C0 36.5369 0.689727 38.8051 1.53409 40.0486C2.37723 41.2921 3.34432 42.3084 3.68182 42.3084C4.01932 42.3084 4.56791 43.5436 4.9005 45.0523L7.37223 56.2561C7.70482 57.7648 9.2205 59 10.7386 59H16.2614C17.7795 59 19.2952 57.7648 19.6278 56.2561L22.0995 45.0523C22.4321 43.5436 22.9807 42.3084 23.3182 42.3084C23.6557 42.3084 24.6215 41.2921 25.4659 40.0486C26.309 38.8051 27 36.5369 27 35.0059V24.2259C27 22.6958 25.6439 20.7262 23.9834 19.849L23.8803 19.7943Z" fill="#ccc"/>
</svg>