<svg width="37" height="40" viewBox="0 0 37 40" fill="none" xmlns="http://www.w3.org/2000/svg">
    <path d="M13.987 0.0910397C13.1012 0.286552 12.5522 0.653904 12.2071 1.29513C11.8543 1.93637 11.7601 2.56168 11.7601 4.32823V5.89967L11.5329 5.95436C11.1408 6.04049 10.6078 6.4311 10.4039 6.7907C10.1059 7.28336 10.0118 8.01806 10.0511 9.37807C10.0826 10.285 10.1215 10.6524 10.2312 10.9181C10.435 11.4185 10.7879 11.9108 11.0859 12.1063C11.3213 12.2626 11.3446 12.3173 11.431 12.9504C11.8543 16.0773 14.1593 18.5084 17.2013 19.0402C17.8051 19.1496 19.0438 19.1496 19.6476 19.0402C21.1216 18.7822 22.4934 18.0553 23.4971 16.992C24.5242 15.9055 25.2926 14.2561 25.4493 12.7626C25.4964 12.3169 25.5279 12.2699 25.8255 12.0512C26.0527 11.8793 26.241 11.6291 26.4604 11.2071L26.7662 10.5973L26.7977 9.40134C26.8604 7.25152 26.6172 6.57927 25.6217 6.07886L25.0887 5.81314V4.28129C25.0887 2.02984 24.8533 1.21677 24.0379 0.591454C23.2773 0.0130806 23.3559 0.0208359 18.6594 0.00532532C15.3669 -0.0105934 14.3632 0.00491714 13.987 0.0910397ZM22.8778 1.79514C23.3559 2.0531 23.3952 2.24861 23.4423 4.75803L23.4816 7.00948L23.6854 7.21274C23.8578 7.37683 23.999 7.43152 24.4223 7.47071C24.7436 7.50989 24.9712 7.57234 25.0183 7.64255C25.0576 7.705 25.0887 8.33031 25.0887 9.02623C25.0887 10.5038 25.0261 10.7071 24.5398 10.8401C24.0223 10.9809 23.8967 11.2075 23.8262 12.0752C23.7947 12.4973 23.7088 13.0679 23.6379 13.3418C23.3477 14.4908 22.556 15.7104 21.6857 16.3671C18.9656 18.4231 15.1475 17.5239 13.6501 14.4753C13.2661 13.7091 13.1012 13.0838 13.023 12.1144C12.9526 11.2544 12.8191 11.0124 12.341 10.856C11.8158 10.692 11.7609 10.512 11.7609 9.02664C11.7609 8.33112 11.7925 7.7054 11.8314 7.64295C11.8784 7.57275 12.1056 7.50989 12.4274 7.47112C12.8506 7.43193 12.9919 7.37724 13.1642 7.21315L13.3681 7.00989L13.4074 4.75843C13.4622 1.9833 13.5015 1.858 14.3481 1.68616C14.4971 1.65473 16.4255 1.63922 18.6209 1.63922C22.321 1.65432 22.6346 1.66208 22.8778 1.79514Z" fill="black"/>
    <path d="M9.21228 14.2094C7.29937 14.4828 5.61365 15.7416 4.78266 17.5241C4.46132 18.2119 4.23372 19.0719 4.23372 19.627V19.9866H2.45426C0.478714 19.9866 0.36082 20.0098 0.141406 20.4556C0.00795689 20.7135 0.000179155 21.3311 0.000179155 29.9773C0.000179155 40.1011 -0.023154 39.6317 0.462749 39.8741C0.674385 39.9835 2.48537 39.999 18.4248 39.999C38.0799 39.999 36.5043 40.046 36.7393 39.4908C36.9039 39.0921 36.9039 20.8931 36.7393 20.4943C36.5354 20.0253 36.3631 19.9862 34.3794 19.9862H32.6155V19.6266C32.6155 18.7041 32.0903 17.3127 31.4079 16.4135C30.5065 15.2253 29.0557 14.4045 27.4957 14.2012C26.4997 14.0681 26.0764 14.2481 25.9827 14.8424C25.8886 15.4208 26.3433 15.8429 27.0724 15.8429C27.5665 15.8429 28.28 16.0461 28.813 16.351C29.9813 17 30.7807 18.2115 30.9375 19.5482L30.9924 19.9862H18.4244H5.85681L5.91166 19.5094C6.13885 17.5474 7.93428 15.8429 9.77678 15.8429C10.4277 15.8429 10.898 15.4833 10.898 14.9828C10.898 14.6935 10.6626 14.3498 10.3884 14.2322C10.0903 14.1159 9.91801 14.1077 9.21228 14.2094ZM35.124 29.9928V38.3574H18.4244H1.72479V29.9928V21.6282H18.4244H35.124V29.9928Z" fill="black"/>
    <path d="M9.00842 23.4576C7.48726 23.8797 6.39756 25.365 5.92722 27.6479C5.73114 28.625 5.62143 30.3369 5.72336 30.9157C5.99762 32.4949 7.51101 35.012 9.06328 36.4818C10.6 37.9357 11.7212 38.0766 12.6386 36.9353C13.1875 36.2471 13.5244 35.5124 14.5044 32.8075C14.8573 31.8381 15.2961 30.7202 15.4844 30.3218C15.7902 29.6883 15.8528 29.5948 16.0645 29.5557C16.378 29.4932 16.6838 29.1805 16.7387 28.8679C16.762 28.7348 16.778 27.5389 16.762 26.2177L16.7387 23.8021L16.48 23.5752L16.229 23.3486L12.795 23.3564C10.2864 23.3638 9.27491 23.387 9.00842 23.4576ZM15.0534 25.8107V26.6315H11.5251C9.11813 26.6315 7.99691 26.6083 7.99691 26.5532C7.99691 26.3813 8.54585 25.623 8.81234 25.4197C9.3531 25.0132 9.47099 24.9976 12.3717 24.9899H15.0529V25.8107H15.0534ZM14.5122 28.7577C14.3476 28.9842 14.1123 29.3597 14.0025 29.5785L13.7987 29.9928H10.584H7.36937V29.6957C7.36937 29.5393 7.3927 29.172 7.42422 28.8748L7.4713 28.3511H11.1489H14.8262L14.5122 28.7577ZM13.0934 31.7051C13.0934 31.7442 12.9681 32.1349 12.8109 32.5651L12.5285 33.3545H10.5763H8.62404L8.35755 32.9402C8.09884 32.5414 7.68334 31.7598 7.68334 31.6736C7.68334 31.6504 8.89872 31.6344 10.3884 31.6344C11.9955 31.6344 13.0934 31.6659 13.0934 31.7051ZM11.8387 35.0508C11.8387 35.1835 11.3524 35.9418 11.2427 35.9888C11.18 36.012 11.0388 35.9651 10.9136 35.8949C10.5685 35.6684 9.9569 35.1443 9.9569 35.0663C9.9569 35.0271 10.3802 34.9961 10.8976 34.9961C11.4154 34.9961 11.8387 35.0198 11.8387 35.0508Z" fill="black"/>
    <path d="M20.3689 23.5749L20.1102 23.8018L20.0868 26.3345C20.0713 28.6169 20.079 28.8831 20.2043 29.1333C20.3062 29.321 20.4237 29.4304 20.612 29.4851C20.7532 29.5243 20.9571 29.6651 21.059 29.7978C21.3493 30.1888 21.8978 31.3455 22.572 33.0419C24.1947 37.0836 24.9635 38.0138 26.343 37.6072C27.1347 37.3725 28.0836 36.6538 28.985 35.606C30.0669 34.3395 31.0313 32.737 31.4468 31.5174C31.6114 31.0329 31.6351 30.8529 31.6191 29.8835C31.5565 26.561 30.694 24.5051 29.0242 23.6842L28.4282 23.3871L24.5316 23.3638L20.6272 23.3402L20.3689 23.5749ZM28.3893 25.2402C28.7737 25.4667 29.048 25.7716 29.3145 26.2957L29.479 26.6316H25.6372H21.7955V25.8108V24.9822L24.916 25.0059L28.0287 25.0292L28.3893 25.2402ZM29.9027 28.7108C29.9261 28.9141 29.9498 29.2814 29.9498 29.5316V29.9929H26.5157H23.0739L22.9249 29.657C22.8463 29.477 22.6113 29.1096 22.4074 28.8361L22.039 28.3512H25.9434H29.8479L29.9027 28.7108ZM29.4713 31.9631C29.3771 32.1505 29.1499 32.5337 28.9616 32.8309L28.6165 33.3545L26.5624 33.339L24.5005 33.3154L24.1709 32.5337C23.9908 32.1039 23.8418 31.7288 23.8418 31.6896C23.834 31.6582 25.1432 31.6349 26.7347 31.6349H29.6354L29.4713 31.9631ZM26.9075 35.3795C26.6803 35.5905 26.3745 35.8252 26.2255 35.9031C25.9746 36.0362 25.9512 36.0362 25.81 35.9113C25.7314 35.8329 25.5668 35.5986 25.4494 35.3876L25.2377 34.9966H26.2803L27.323 35.0044L26.9075 35.3795Z" fill="black"/>
    </svg>
    