<svg width="55" height="55" viewBox="0 0 55 55" fill="none" xmlns="http://www.w3.org/2000/svg">
    <path d="M28.7405 25.4114H24.3261V29.5945C24.3261 29.9704 24.0273 30.2692 23.6514 30.2692C23.2755 30.2692 22.9767 29.9704 22.9767 29.5945V25.4114H7.95996V34.8185C7.95996 37.9703 9.35754 40.7848 11.5744 42.6932C13.3961 44.2643 15.7671 45.2088 18.3502 45.2088C21.1358 45.2088 23.661 44.11 25.5309 42.3269C27.5068 40.4378 28.7405 37.7679 28.7405 34.8089V25.4114ZM24.1333 34.3655C24.008 34.4908 23.8345 34.5583 23.6514 34.5583C23.6032 34.5583 23.5647 34.5583 23.5165 34.5487C23.4779 34.539 23.4297 34.5294 23.3912 34.5101C23.3526 34.4908 23.3141 34.4716 23.2755 34.4426C23.237 34.4137 23.208 34.3944 23.1695 34.3559C23.0442 34.2306 22.9767 34.0571 22.9767 33.874C22.9767 33.7005 23.0538 33.527 23.1695 33.4017C23.1984 33.3728 23.237 33.3438 23.2755 33.3149C23.3141 33.286 23.3526 33.2667 23.3912 33.2571C23.4297 33.2378 23.4779 33.2282 23.5165 33.2185C23.7382 33.1704 23.9695 33.2475 24.1237 33.4017C24.249 33.527 24.3165 33.7005 24.3165 33.874C24.3261 34.0667 24.2586 34.2402 24.1333 34.3655Z" fill="black"/>
    <path d="M32.6827 24.5254C31.7863 24.5254 30.9189 24.6411 30.0899 24.8531V34.8193C30.0899 38.0096 28.8369 40.9783 26.5623 43.2048C28.2779 44.4674 30.3887 45.2096 32.6827 45.2096C35.2947 45.2096 37.6851 44.2361 39.5067 42.6361C39.4875 42.6265 39.4682 42.6072 39.4585 42.5879L32.6634 35.7928C32.4032 35.5325 32.4032 35.0988 32.6634 34.8386C32.9237 34.5783 33.3574 34.5783 33.6176 34.8386L40.4128 41.6337C40.432 41.653 40.4417 41.6626 40.4609 41.6819C42.0609 39.8602 43.0344 37.4699 43.0344 34.8578C43.0248 29.1519 38.3983 24.5254 32.6827 24.5254ZM31.8923 34.0771C31.767 34.2024 31.5935 34.2795 31.4104 34.2795C31.3622 34.2795 31.3237 34.2699 31.2755 34.2699C31.2273 34.2603 31.1887 34.2506 31.1502 34.2313C31.1116 34.2121 31.0731 34.1928 31.0345 34.1735C30.996 34.1446 30.967 34.1253 30.9285 34.0868C30.8032 33.9615 30.7357 33.788 30.7357 33.6145C30.7357 33.5663 30.7357 33.5277 30.7454 33.4795C30.755 33.4313 30.7646 33.3928 30.7839 33.3542C30.8032 33.3157 30.8225 33.2771 30.8417 33.2386C30.8707 33.2 30.8899 33.1711 30.9285 33.1326C31.0827 32.9783 31.3237 32.9012 31.5357 32.9494C31.5839 32.9591 31.6225 32.9687 31.661 32.988C31.6996 33.0073 31.7381 33.0265 31.7767 33.0554C31.8152 33.0844 31.8441 33.1036 31.8827 33.1422C31.9116 33.1711 31.9405 33.2097 31.9694 33.2482C31.9984 33.2868 32.0176 33.3253 32.0369 33.3639C32.0562 33.4024 32.0658 33.4506 32.0755 33.4892C32.0851 33.5277 32.0851 33.5759 32.0851 33.6241C32.0851 33.7687 32.0176 33.9518 31.8923 34.0771Z" fill="black"/>
    <path d="M28.7405 15.6002C28.7405 12.728 27.5743 10.1352 25.6948 8.25572C23.8153 6.37622 21.2129 5.20996 18.3502 5.20996C16.4129 5.20996 14.6009 5.74008 13.0491 6.66537C10.0033 8.47741 7.95996 11.8027 7.95996 15.6099V24.0821H28.7405V15.6002ZM15.2177 10.3087C13.3575 11.4171 12.2009 13.4412 12.2009 15.6002C12.2009 15.9761 11.9021 16.2749 11.5262 16.2749C11.1503 16.2749 10.8515 15.9761 10.8515 15.6002C10.8515 12.9689 12.2587 10.4918 14.5238 9.14246C14.8418 8.94969 15.2563 9.05572 15.4491 9.38342C15.6418 9.70149 15.5358 10.1159 15.2177 10.3087Z" fill="black"/>
    </svg>
    