<svg width="37" height="41" viewBox="0 0 37 41" fill="none" xmlns="http://www.w3.org/2000/svg">
    <path d="M21.7405 20.4114H17.3261V24.5945C17.3261 24.9704 17.0273 25.2692 16.6514 25.2692C16.2755 25.2692 15.9767 24.9704 15.9767 24.5945V20.4114H0.959961V29.8185C0.959961 32.9703 2.35754 35.7848 4.57439 37.6932C6.39606 39.2643 8.76713 40.2088 11.3502 40.2088C14.1358 40.2088 16.661 39.11 18.5309 37.3269C20.5068 35.4378 21.7405 32.7679 21.7405 29.8089V20.4114ZM17.1333 29.3655C17.008 29.4908 16.8345 29.5583 16.6514 29.5583C16.6032 29.5583 16.5647 29.5583 16.5165 29.5487C16.4779 29.539 16.4297 29.5294 16.3912 29.5101C16.3526 29.4908 16.3141 29.4716 16.2755 29.4426C16.237 29.4137 16.208 29.3944 16.1695 29.3559C16.0442 29.2306 15.9767 29.0571 15.9767 28.874C15.9767 28.7005 16.0538 28.527 16.1695 28.4017C16.1984 28.3728 16.237 28.3438 16.2755 28.3149C16.3141 28.286 16.3526 28.2667 16.3912 28.2571C16.4297 28.2378 16.4779 28.2282 16.5165 28.2185C16.7382 28.1704 16.9695 28.2475 17.1237 28.4017C17.249 28.527 17.3165 28.7005 17.3165 28.874C17.3261 29.0667 17.2586 29.2402 17.1333 29.3655Z" fill="#49CEBF"/>
    <path d="M25.6827 19.5254C24.7863 19.5254 23.9189 19.6411 23.0899 19.8531V29.8193C23.0899 33.0096 21.8369 35.9783 19.5623 38.2048C21.2779 39.4674 23.3887 40.2096 25.6827 40.2096C28.2947 40.2096 30.6851 39.2361 32.5067 37.6361C32.4875 37.6265 32.4682 37.6072 32.4585 37.5879L25.6634 30.7928C25.4032 30.5325 25.4032 30.0988 25.6634 29.8386C25.9237 29.5783 26.3574 29.5783 26.6176 29.8386L33.4128 36.6337C33.432 36.653 33.4417 36.6626 33.4609 36.6819C35.0609 34.8602 36.0344 32.4699 36.0344 29.8578C36.0248 24.1519 31.3983 19.5254 25.6827 19.5254ZM24.8923 29.0771C24.767 29.2024 24.5935 29.2795 24.4104 29.2795C24.3622 29.2795 24.3237 29.2699 24.2755 29.2699C24.2273 29.2603 24.1887 29.2506 24.1502 29.2313C24.1116 29.2121 24.0731 29.1928 24.0345 29.1735C23.996 29.1446 23.967 29.1253 23.9285 29.0868C23.8032 28.9615 23.7357 28.788 23.7357 28.6145C23.7357 28.5663 23.7357 28.5277 23.7454 28.4795C23.755 28.4313 23.7646 28.3928 23.7839 28.3542C23.8032 28.3157 23.8225 28.2771 23.8417 28.2386C23.8707 28.2 23.8899 28.1711 23.9285 28.1326C24.0827 27.9783 24.3237 27.9012 24.5357 27.9494C24.5839 27.9591 24.6225 27.9687 24.661 27.988C24.6996 28.0073 24.7381 28.0265 24.7767 28.0554C24.8152 28.0844 24.8441 28.1036 24.8827 28.1422C24.9116 28.1711 24.9405 28.2097 24.9694 28.2482C24.9984 28.2868 25.0176 28.3253 25.0369 28.3639C25.0562 28.4024 25.0658 28.4506 25.0755 28.4892C25.0851 28.5277 25.0851 28.5759 25.0851 28.6241C25.0851 28.7687 25.0176 28.9518 24.8923 29.0771Z" fill="black"/>
    <path d="M21.7405 10.6002C21.7405 7.72798 20.5743 5.13523 18.6948 3.25572C16.8153 1.37622 14.2129 0.209961 11.3502 0.209961C9.41291 0.209961 7.60088 0.740077 6.04908 1.66537C3.00332 3.47741 0.959961 6.80268 0.959961 10.6099V19.0821H21.7405V10.6002ZM8.21774 5.30872C6.35751 6.41714 5.20089 8.44123 5.20089 10.6002C5.20089 10.9761 4.9021 11.2749 4.5262 11.2749C4.1503 11.2749 3.85151 10.9761 3.85151 10.6002C3.85151 7.96894 5.25872 5.49185 7.52377 4.14246C7.84184 3.94969 8.25629 4.05572 8.44906 4.38342C8.64183 4.70149 8.53581 5.11595 8.21774 5.30872Z" fill="black"/>
    </svg>
    