<svg width="140" height="151" viewBox="0 0 140 151" fill="none" xmlns="http://www.w3.org/2000/svg">
<ellipse cx="69.2986" cy="81.0584" rx="49.979" ry="60.0588" fill="#272C2A" fill-opacity="0.5"/>
<path d="M70 10.9198C31.36 10.9198 0 42.2798 0 80.9198C0 119.56 31.36 150.92 70 150.92C108.64 150.92 140 119.56 140 80.9198C140 42.2798 108.64 10.9198 70 10.9198ZM70 31.9198C81.62 31.9198 91 41.2998 91 52.9198C91 64.5398 81.62 73.9198 70 73.9198C58.38 73.9198 49 64.5398 49 52.9198C49 41.2998 58.38 31.9198 70 31.9198ZM70 131.32C52.5 131.32 37.03 122.36 28 108.78C28.21 94.8498 56 87.2198 70 87.2198C83.93 87.2198 111.79 94.8498 112 108.78C102.97 122.36 87.5 131.32 70 131.32Z" fill="#E4E4E4"/>
</svg>
